<svg id="visual" viewBox="0 0 900 600" width="900" height="600" xmlns="http://www.w3.org/2000/svg" xmlns:xlink="http://www.w3.org/1999/xlink" version="1.1"><rect x="0" y="0" width="900" height="600" fill="#bddbeb"></rect><path d="M0 523L7.5 520.5C15 518 30 513 45 509.8C60 506.7 75 505.3 90 502.3C105 499.3 120 494.7 135 496.3C150 498 165 506 180 508.3C195 510.7 210 507.3 225 508.8C240 510.3 255 516.7 270 521.3C285 526 300 529 315 529.5C330 530 345 528 360 522.2C375 516.3 390 506.7 405 504.7C420 502.7 435 508.3 450 509.2C465 510 480 506 495 507.3C510 508.7 525 515.3 540 514.5C555 513.7 570 505.3 585 501C600 496.7 615 496.3 630 501.2C645 506 660 516 675 522.2C690 528.3 705 530.7 720 525.5C735 520.3 750 507.7 765 502C780 496.3 795 497.7 810 503.3C825 509 840 519 855 523.2C870 527.3 885 525.7 892.5 524.8L900 524L900 601L892.5 601C885 601 870 601 855 601C840 601 825 601 810 601C795 601 780 601 765 601C750 601 735 601 720 601C705 601 690 601 675 601C660 601 645 601 630 601C615 601 600 601 585 601C570 601 555 601 540 601C525 601 510 601 495 601C480 601 465 601 450 601C435 601 420 601 405 601C390 601 375 601 360 601C345 601 330 601 315 601C300 601 285 601 270 601C255 601 240 601 225 601C210 601 195 601 180 601C165 601 150 601 135 601C120 601 105 601 90 601C75 601 60 601 45 601C30 601 15 601 7.5 601L0 601Z" fill="#ffffff" stroke-linecap="round" stroke-linejoin="miter"></path></svg>